<svg width="1189" height="359" viewBox="0 0 1189 359" fill="none" xmlns="http://www.w3.org/2000/svg">
<path d="M341.071 65.9647H305.355V74.8901H296.426V146.293H305.355V155.218H341.071V146.293H350V74.8901H341.071V65.9647ZM296.426 57.0394V48.1141H350V57.0394H358.928V65.9647H367.857V155.218H358.928V164.143H350V173.069H296.426V164.143H287.497V155.218H278.568V65.9647H287.497V57.0394H296.426Z" fill="#31324C"/>
<path d="M399.001 119.517V173.069H381.144V74.8901H399.001V92.7407H407.93V83.8154H416.859V74.8901H452.575V83.8154H461.504V92.7407H470.432V110.591H452.575V101.666H443.646V92.7407H425.788V101.666H416.859V110.591H407.93V119.517H399.001Z" fill="#31324C"/>
<path d="M555.15 146.293V137.367H573.008V155.218H564.079V164.143H555.15V173.069H501.576V164.143H492.648V155.218H483.719V92.7407H492.648V83.8154H501.576V74.8901H555.15V83.8154H564.079V92.7407H573.008V110.591H555.15V101.666H546.221V92.7407H510.505V101.666H501.576V146.293H510.505V155.218H546.221V146.293H555.15Z" fill="#31324C"/>
<path d="M604.152 119.517V173.069H586.294V48.1141H604.152V92.7407H613.08V83.8154H622.009V74.8901H648.796V83.8154H657.725V92.7407H666.654V101.666H675.583V173.069H657.725V110.591H648.796V101.666H639.867V92.7407H630.938V101.666H622.009V110.591H613.08V119.517H604.152Z" fill="#31324C"/>
<path d="M715.656 155.218H751.371V146.293H760.3V128.442H751.371V119.517H715.656V128.442H706.727V146.293H715.656V155.218ZM706.727 173.069V164.143H697.798V155.218H688.869V119.517H697.798V110.591H706.727V101.666H751.371V110.591H760.3V92.7407H751.371V83.8154H706.727V65.9647H760.3V74.8901H769.229V83.8154H778.158V173.069H760.3V164.143H751.371V173.069H706.727Z" fill="#31324C"/>
<path d="M809.302 119.517V173.069H791.444V74.8901H809.302V92.7407H818.231V83.8154H827.16V74.8901H862.875V83.8154H871.804V92.7407H880.733V110.591H862.875V101.666H853.946V92.7407H836.089V101.666H827.16V110.591H818.231V119.517H809.302Z" fill="#31324C"/>
<path d="M965.45 92.7407V48.1141H983.308V173.069H965.45V155.218H956.522V164.143H947.593V173.069H920.806V164.143H911.877V155.218H902.948V146.293H894.019V101.666H902.948V92.7407H911.877V83.8154H920.806V74.8901H947.593V83.8154H956.522V92.7407H965.45ZM920.806 146.293H929.735V155.218H938.664V146.293H947.593V137.367H956.522V110.591H947.593V101.666H938.664V92.7407H929.735V101.666H920.806V110.591H911.877V137.367H920.806V146.293Z" fill="#31324C"/>
<path d="M296.426 283.285V336.837H278.568V211.882H296.426V265.434H350V211.882H367.857V336.837H350V283.285H296.426Z" fill="#31324C"/>
<path d="M407.93 318.986H443.646V310.061H452.575V292.21H443.646V283.285H407.93V292.21H399.001V310.061H407.93V318.986ZM399.001 336.837V327.912H390.072V318.986H381.144V283.285H390.072V274.36H399.001V265.434H443.646V274.36H452.575V256.509H443.646V247.584H399.001V229.733H452.575V238.658H461.504V247.584H470.432V336.837H452.575V327.912H443.646V336.837H399.001Z" fill="#31324C"/>
<path d="M555.15 310.061V301.136H573.008V318.986H564.079V327.912H555.15V336.837H501.576V327.912H492.648V318.986H483.719V256.509H492.648V247.584H501.576V238.658H555.15V247.584H564.079V256.509H573.008V274.36H555.15V265.434H546.221V256.509H510.505V265.434H501.576V310.061H510.505V318.986H546.221V310.061H555.15Z" fill="#31324C"/>
<path d="M604.152 318.986V336.837H586.294V211.882H604.152V292.21H613.08V283.285H622.009V274.36H630.938V265.434H639.867V256.509H648.796V247.584H657.725V238.658H675.583V256.509H666.654V265.434H657.725V274.36H648.796V283.285H639.867V292.21H648.796V301.136H657.725V310.061H666.654V318.986H675.583V336.837H657.725V327.912H648.796V318.986H639.867V310.061H630.938V301.136H622.009V310.061H613.08V318.986H604.152Z" fill="#31324C"/>
<path d="M715.656 318.986H751.371V310.061H760.3V292.21H751.371V283.285H715.656V292.21H706.727V310.061H715.656V318.986ZM706.727 336.837V327.912H697.798V318.986H688.869V283.285H697.798V274.36H706.727V265.434H751.371V274.36H760.3V256.509H751.371V247.584H706.727V229.733H760.3V238.658H769.229V247.584H778.158V336.837H760.3V327.912H751.371V336.837H706.727Z" fill="#31324C"/>
<path d="M853.946 318.986H862.875V336.837H845.018V327.912H836.089V318.986H827.16V256.509H809.302V238.658H827.16V211.882H845.018V238.658H862.875V256.509H845.018V310.061H853.946V318.986Z" fill="#31324C"/>
<path d="M911.877 283.285V336.837H894.019V211.882H911.877V256.509H920.806V247.584H929.735V238.658H956.522V247.584H965.45V256.509H974.379V265.434H983.308V336.837H965.45V274.36H956.522V265.434H947.593V256.509H938.664V265.434H929.735V274.36H920.806V283.285H911.877Z" fill="#31324C"/>
<path d="M1023.38 318.986H1059.1V310.061H1068.03V265.434H1059.1V256.509H1023.38V265.434H1014.45V310.061H1023.38V318.986ZM1014.45 336.837V327.912H1005.52V318.986H996.594V256.509H1005.52V247.584H1014.45V238.658H1068.03V247.584H1076.95V256.509H1085.88V318.986H1076.95V327.912H1068.03V336.837H1014.45Z" fill="#31324C"/>
<path d="M1117.03 265.434V336.837H1099.17V238.658H1117.03V247.584H1125.96V238.658H1170.6V247.584H1179.53V256.509H1188.46V336.837H1170.6V265.434H1161.67V256.509H1125.96V265.434H1117.03Z" fill="#31324C"/>
<path d="M77.997 143.561H245.991V287.874H77.997V143.561Z" fill="#31324C"/>
<path d="M227.991 12.0261V0H251.99V24.0521H239.991V36.0782H215.992V48.1042H191.993V60.1303H167.994V72.1563H143.995V84.1824H119.995V96.2084H95.9963V108.234H71.9973V120.261H59.9977V359H35.9986V126.274H23.9991V138.3H0V114.248H11.9995V102.221H35.9986V72.1563H59.9977V84.1824H83.9968V72.1563H107.996V60.1303H131.995V48.1042H155.994V36.0782H179.993V24.0521H203.992V12.0261H227.991Z" fill="#47E6A1"/>
<path fill-rule="evenodd" clip-rule="evenodd" d="M227.991 48.1042V60.1303H203.992V72.1563H179.993V84.1824H155.994V96.2084H131.995V108.234H107.996V120.261H83.9968V132.287H71.9973V336.73H251.99V48.1042H227.991ZM239.991 252.547V264.573H179.993V240.521H191.993V252.547H239.991ZM203.992 228.495V240.521H191.993V228.495H203.992ZM215.992 216.469V228.495H203.992V216.469H215.992ZM227.991 204.443V216.469H215.992V204.443H227.991ZM227.991 180.391H239.991V204.443H227.991V180.391ZM191.993 180.391V168.365H227.991V180.391H191.993ZM191.993 180.391V192.417H179.993V180.391H191.993ZM167.994 252.547V264.573H107.996V240.521H119.995V252.547H167.994ZM131.995 228.495V240.521H119.995V228.495H131.995ZM143.995 216.469V228.495H131.995V216.469H143.995ZM155.994 204.443V216.469H143.995V204.443H155.994ZM155.994 180.391H167.994V204.443H155.994V180.391ZM119.995 180.391V168.365H155.994V180.391H119.995ZM119.995 180.391V192.417H107.996V180.391H119.995ZM95.9963 156.339H83.9968V180.391H95.9963V156.339Z" fill="#47E6A1"/>
</svg>
