<svg width="1277" height="461" viewBox="0 0 1277 461" fill="none" xmlns="http://www.w3.org/2000/svg">
<path d="M413.678 18.1863H377.29V27.2795H368.194V100.025H377.29V109.118H413.678V100.025H422.774V27.2795H413.678V18.1863ZM368.194 9.09317V0H422.774V9.09317H431.871V18.1863H440.968V109.118H431.871V118.211H422.774V127.304H368.194V118.211H359.097V109.118H350V18.1863H359.097V9.09317H368.194Z" fill="#31324C"/>
<path d="M472.698 72.7453V127.304H454.504V27.2795H472.698V45.4658H481.794V36.3727H490.891V27.2795H527.278V36.3727H536.375V45.4658H545.472V63.6522H527.278V54.559H518.182V45.4658H499.988V54.559H490.891V63.6522H481.794V72.7453H472.698Z" fill="#31324C"/>
<path d="M631.782 100.025V90.9317H649.976V109.118H640.879V118.211H631.782V127.304H577.202V118.211H568.105V109.118H559.008V45.4658H568.105V36.3727H577.202V27.2795H631.782V36.3727H640.879V45.4658H649.976V63.6522H631.782V54.559H622.686V45.4658H586.298V54.559H577.202V100.025H586.298V109.118H622.686V100.025H631.782Z" fill="#31324C"/>
<path d="M681.706 72.7453V127.304H663.512V0H681.706V45.4658H690.802V36.3727H699.899V27.2795H727.19V36.3727H736.286V45.4658H745.383V54.559H754.48V127.304H736.286V63.6522H727.19V54.559H718.093V45.4658H708.996V54.559H699.899V63.6522H690.802V72.7453H681.706Z" fill="#31324C"/>
<path d="M795.306 109.118H831.694V100.025H840.79V81.8385H831.694V72.7453H795.306V81.8385H786.21V100.025H795.306V109.118ZM786.21 127.304V118.211H777.113V109.118H768.016V72.7453H777.113V63.6522H786.21V54.559H831.694V63.6522H840.79V45.4658H831.694V36.3727H786.21V18.1863H840.79V27.2795H849.887V36.3727H858.984V127.304H840.79V118.211H831.694V127.304H786.21Z" fill="#31324C"/>
<path d="M890.714 72.7453V127.304H872.52V27.2795H890.714V45.4658H899.81V36.3727H908.907V27.2795H945.294V36.3727H954.391V45.4658H963.488V63.6522H945.294V54.559H936.198V45.4658H918.004V54.559H908.907V63.6522H899.81V72.7453H890.714Z" fill="#31324C"/>
<path d="M1049.8 45.4658V0H1067.99V127.304H1049.8V109.118H1040.7V118.211H1031.6V127.304H1004.31V118.211H995.218V109.118H986.121V100.025H977.024V54.559H986.121V45.4658H995.218V36.3727H1004.31V27.2795H1031.6V36.3727H1040.7V45.4658H1049.8ZM1004.31 100.025H1013.41V109.118H1022.51V100.025H1031.6V90.9317H1040.7V63.6522H1031.6V54.559H1022.51V45.4658H1013.41V54.559H1004.31V63.6522H995.218V90.9317H1004.31V100.025Z" fill="#31324C"/>
<path d="M368.194 239.593V294.152H350V166.848H368.194V221.407H422.774V166.848H440.968V294.152H422.774V239.593H368.194Z" fill="#31324C"/>
<path d="M481.794 275.966H518.182V266.873H527.278V248.686H518.182V239.593H481.794V248.686H472.698V266.873H481.794V275.966ZM472.698 294.152V285.059H463.601V275.966H454.504V239.593H463.601V230.5H472.698V221.407H518.182V230.5H527.278V212.314H518.182V203.22H472.698V185.034H527.278V194.127H536.375V203.22H545.472V294.152H527.278V285.059H518.182V294.152H472.698Z" fill="#31324C"/>
<path d="M631.782 266.873V257.779H649.976V275.966H640.879V285.059H631.782V294.152H577.202V285.059H568.105V275.966H559.008V212.314H568.105V203.22H577.202V194.127H631.782V203.22H640.879V212.314H649.976V230.5H631.782V221.407H622.686V212.314H586.298V221.407H577.202V266.873H586.298V275.966H622.686V266.873H631.782Z" fill="#31324C"/>
<path d="M681.706 275.966V294.152H663.512V166.848H681.706V248.686H690.802V239.593H699.899V230.5H708.996V221.407H718.093V212.314H727.19V203.22H736.286V194.127H754.48V212.314H745.383V221.407H736.286V230.5H727.19V239.593H718.093V248.686H727.19V257.779H736.286V266.873H745.383V275.966H754.48V294.152H736.286V285.059H727.19V275.966H718.093V266.873H708.996V257.779H699.899V266.873H690.802V275.966H681.706Z" fill="#31324C"/>
<path d="M795.306 275.966H831.694V266.873H840.79V248.686H831.694V239.593H795.306V248.686H786.21V266.873H795.306V275.966ZM786.21 294.152V285.059H777.113V275.966H768.016V239.593H777.113V230.5H786.21V221.407H831.694V230.5H840.79V212.314H831.694V203.22H786.21V185.034H840.79V194.127H849.887V203.22H858.984V294.152H840.79V285.059H831.694V294.152H786.21Z" fill="#31324C"/>
<path d="M936.198 275.966H945.294V294.152H927.101V285.059H918.004V275.966H908.907V212.314H890.714V194.127H908.907V166.848H927.101V194.127H945.294V212.314H927.101V266.873H936.198V275.966Z" fill="#31324C"/>
<path d="M995.218 239.593V294.152H977.024V166.848H995.218V212.314H1004.31V203.22H1013.41V194.127H1040.7V203.22H1049.8V212.314H1058.9V221.407H1067.99V294.152H1049.8V230.5H1040.7V221.407H1031.6V212.314H1022.51V221.407H1013.41V230.5H1004.31V239.593H995.218Z" fill="#31324C"/>
<path d="M1108.82 275.966H1145.21V266.873H1154.3V221.407H1145.21V212.314H1108.82V221.407H1099.72V266.873H1108.82V275.966ZM1099.72 294.152V285.059H1090.62V275.966H1081.53V212.314H1090.62V203.22H1099.72V194.127H1154.3V203.22H1163.4V212.314H1172.5V275.966H1163.4V285.059H1154.3V294.152H1099.72Z" fill="#31324C"/>
<path d="M1204.23 221.407V294.152H1186.03V194.127H1204.23V203.22H1213.32V194.127H1258.81V203.22H1267.9V212.314H1277V294.152H1258.81V221.407H1249.71V212.314H1213.32V221.407H1204.23Z" fill="#31324C"/>
<path d="M368.194 461H350V333.696H368.194V351.882H377.29V360.975H386.387V370.068H404.581V360.975H413.678V351.882H422.774V333.696H440.968V461H422.774V379.161H413.678V388.255H404.581V406.441H386.387V388.255H377.29V379.161H368.194V461Z" fill="#31324C"/>
<path d="M481.794 442.814H518.182V433.72H527.278V415.534H518.182V406.441H481.794V415.534H472.698V433.72H481.794V442.814ZM472.698 461V451.907H463.601V442.814H454.504V406.441H463.601V397.348H472.698V388.255H518.182V397.348H527.278V379.161H518.182V370.068H472.698V351.882H527.278V360.975H536.375V370.068H545.472V461H527.278V451.907H518.182V461H472.698Z" fill="#31324C"/>
<path d="M577.202 461V442.814H622.686V433.72H631.782V406.441H622.686V415.534H613.589V424.627H577.202V415.534H568.105V406.441H559.008V351.882H577.202V397.348H586.298V406.441H604.492V397.348H613.589V388.255H622.686V370.068H631.782V351.882H649.976V442.814H640.879V451.907H631.782V461H577.202Z" fill="#31324C"/>
<path d="M786.21 442.814H858.984V461H768.016V406.441H777.113V397.348H786.21V388.255H831.694V379.161H840.79V360.975H831.694V351.882H795.306V360.975H786.21V370.068H768.016V351.882H777.113V342.789H786.21V333.696H840.79V342.789H849.887V351.882H858.984V388.255H849.887V397.348H840.79V406.441H795.306V415.534H786.21V442.814Z" fill="#31324C"/>
<path d="M899.81 406.441V397.348H908.907V388.255H918.004V379.161H927.101V370.068H945.294V360.975H936.198V351.882H899.81V360.975H890.714V406.441H899.81ZM890.714 424.627V433.72H899.81V442.814H936.198V433.72H945.294V388.255H936.198V397.348H927.101V406.441H918.004V415.534H908.907V424.627H890.714ZM890.714 342.789V333.696H945.294V342.789H954.391V351.882H963.488V442.814H954.391V451.907H945.294V461H890.714V451.907H881.617V442.814H872.52V351.882H881.617V342.789H890.714Z" fill="#31324C"/>
<path d="M995.218 442.814H1067.99V461H977.024V406.441H986.121V397.348H995.218V388.255H1040.7V379.161H1049.8V360.975H1040.7V351.882H1004.31V360.975H995.218V370.068H977.024V351.882H986.121V342.789H995.218V333.696H1049.8V342.789H1058.9V351.882H1067.99V388.255H1058.9V397.348H1049.8V406.441H1004.31V415.534H995.218V442.814Z" fill="#31324C"/>
<path d="M1099.72 442.814H1172.5V461H1081.53V406.441H1090.62V397.348H1099.72V388.255H1145.21V379.161H1154.3V360.975H1145.21V351.882H1108.82V360.975H1099.72V370.068H1081.53V351.882H1090.62V342.789H1099.72V333.696H1154.3V342.789H1163.4V351.882H1172.5V388.255H1163.4V397.348H1154.3V406.441H1108.82V415.534H1099.72V442.814Z" fill="#31324C"/>
<path d="M260 332H245V346H260V332Z" fill="#31324C"/>
<path d="M72 447H58V461H72V447Z" fill="#A7E9F1"/>
<path d="M274 346H260V361H274V346Z" fill="#31324C"/>
<path d="M158 173H144V187H158V173Z" fill="#31324C"/>
<path d="M245 274H231V289H245V274Z" fill="#31324C"/>
<path d="M289 346H274V361H289V346Z" fill="#31324C"/>
<path d="M43 144H29V158H43V144Z" fill="#A7E9F1"/>
<path d="M144 101H129V116H144V101Z" fill="#A7E9F1"/>
<path d="M245 317H231V332H245V317Z" fill="#31324C"/>
<path d="M289 375H274V389H289V375Z" fill="#31324C"/>
<path d="M129 361H116V375H129V361Z" fill="#31324C"/>
<path d="M158 346H144V361H158V346Z" fill="#31324C"/>
<path d="M129 87H116V101H129V87Z" fill="#A7E9F1"/>
<path d="M129 216H116V231H129V216Z" fill="#31324C"/>
<path d="M245 260H231V274H245V260Z" fill="#31324C"/>
<path d="M317 303H303V317H317V303Z" fill="#31324C"/>
<path d="M260 346H245V361H260V346Z" fill="#31324C"/>
<path d="M187 187H173V202H187V187Z" fill="#31324C"/>
<path d="M129 158H116V173H129V158Z" fill="#31324C"/>
<path d="M14 144H0V158H14V144Z" fill="#A7E9F1"/>
<path d="M245 389H231V403H245V389Z" fill="#31324C"/>
<path d="M303 346H289V361H303V346Z" fill="#31324C"/>
<path d="M202 260H187V274H202V260Z" fill="#31324C"/>
<path d="M58 202H43V216H58V202Z" fill="#A7E9F1"/>
<path d="M87 447H72V461H87V447Z" fill="#A7E9F1"/>
<path d="M216 58H202V72H216V58Z" fill="#A7E9F1"/>
<path d="M274 29H260V43H274V29Z" fill="#A7E9F1"/>
<path d="M173 274H158V289H173V274Z" fill="#31324C"/>
<path d="M72 116H58V129H72V116Z" fill="#A7E9F1"/>
<path d="M87 375H72V389H87V375Z" fill="#A7E9F1"/>
<path d="M260 116H245V129H260V116Z" fill="#31324C"/>
<path d="M158 274H144V289H158V274Z" fill="#31324C"/>
<path d="M216 361H202V375H216V361Z" fill="#31324C"/>
<path d="M202 158H187V173H202V158Z" fill="#31324C"/>
<path d="M72 187H58V202H72V187Z" fill="#A7E9F1"/>
<path d="M87 245H72V260H87V245Z" fill="#A7E9F1"/>
<path d="M72 389H58V403H72V389Z" fill="#A7E9F1"/>
<path d="M129 389H116V403H129V389Z" fill="#31324C"/>
<path d="M231 389H216V403H231V389Z" fill="#31324C"/>
<path d="M87 346H72V361H87V346Z" fill="#A7E9F1"/>
<path d="M202 72H187V87H202V72Z" fill="#A7E9F1"/>
<path d="M72 346H58V361H72V346Z" fill="#A7E9F1"/>
<path d="M144 216H129V231H144V216Z" fill="#31324C"/>
<path d="M173 87H158V101H173V87Z" fill="#A7E9F1"/>
<path d="M289 173H274V187H289V173Z" fill="#31324C"/>
<path d="M289 14H274V29H289V14Z" fill="#A7E9F1"/>
<path d="M58 447H43V461H58V447Z" fill="#A7E9F1"/>
<path d="M58 361H43V375H58V361Z" fill="#A7E9F1"/>
<path d="M303 29H289V43H303V29Z" fill="#A7E9F1"/>
<path d="M173 375H158V389H173V375Z" fill="#31324C"/>
<path d="M144 346H129V361H144V346Z" fill="#31324C"/>
<path d="M274 231H260V245H274V231Z" fill="#31324C"/>
<path d="M87 173H72V187H87V173Z" fill="#A7E9F1"/>
<path d="M129 116H116V129H129V116Z" fill="#A7E9F1"/>
<path d="M231 317H216V332H231V317Z" fill="#31324C"/>
<path d="M87 158H72V173H87V158Z" fill="#A7E9F1"/>
<path d="M260 129H245V144H260V129Z" fill="#31324C"/>
<path d="M231 187H216V202H231V187Z" fill="#31324C"/>
<path d="M202 58H187V72H202V58Z" fill="#A7E9F1"/>
<path d="M216 274H202V289H216V274Z" fill="#31324C"/>
<path d="M87 144H72V158H87V144Z" fill="#A7E9F1"/>
<path d="M87 216H72V231H87V216Z" fill="#A7E9F1"/>
<path d="M245 245H231V260H245V245Z" fill="#31324C"/>
<path d="M231 129H216V144H231V129Z" fill="#31324C"/>
<path d="M317 173H303V187H317V173Z" fill="#31324C"/>
<path d="M187 158H173V173H187V158Z" fill="#31324C"/>
<path d="M72 87H58V101H72V87Z" fill="#A7E9F1"/>
<path d="M289 303H274V317H289V303Z" fill="#31324C"/>
<path d="M216 216H202V231H216V216Z" fill="#31324C"/>
<path d="M158 260H144V274H158V260Z" fill="#31324C"/>
<path d="M289 202H274V216H289V202Z" fill="#31324C"/>
<path d="M58 87H43V101H58V87Z" fill="#A7E9F1"/>
<path d="M58 187H43V202H58V187Z" fill="#A7E9F1"/>
<path d="M173 187H158V202H173V187Z" fill="#31324C"/>
<path d="M202 231H187V245H202V231Z" fill="#31324C"/>
<path d="M245 129H231V144H245V129Z" fill="#31324C"/>
<path d="M317 116H303V129H317V116Z" fill="#31324C"/>
<path d="M202 202H187V216H202V202Z" fill="#31324C"/>
<path d="M202 317H187V332H202V317Z" fill="#31324C"/>
<path d="M260 29H245V43H260V29Z" fill="#A7E9F1"/>
<path d="M245 187H231V202H245V187Z" fill="#31324C"/>
<path d="M303 389H289V403H303V389Z" fill="#31324C"/>
<path d="M58 116H43V129H58V116Z" fill="#A7E9F1"/>
<path d="M144 87H129V101H144V87Z" fill="#A7E9F1"/>
<path d="M173 245H158V260H173V245Z" fill="#31324C"/>
<path d="M317 245H303V260H317V245Z" fill="#31324C"/>
<path d="M144 274H129V289H144V274Z" fill="#31324C"/>
<path d="M216 289H202V303H216V289Z" fill="#31324C"/>
<path d="M101 129H87V144H101V129Z" fill="#A7E9F1"/>
<path d="M144 289H129V303H144V289Z" fill="#31324C"/>
<path d="M173 173H158V187H173V173Z" fill="#31324C"/>
<path d="M173 72H158V87H173V72Z" fill="#A7E9F1"/>
<path d="M87 403H72V418H87V403Z" fill="#A7E9F1"/>
<path d="M260 87H245V101H260V87Z" fill="#31324C"/>
<path d="M245 58H231V72H245V58Z" fill="#A7E9F1"/>
<path d="M144 231H129V245H144V231Z" fill="#31324C"/>
<path d="M158 231H144V245H158V231Z" fill="#31324C"/>
<path d="M58 317H43V332H58V317Z" fill="#A7E9F1"/>
<path d="M58 144H43V158H58V144Z" fill="#A7E9F1"/>
<path d="M14 158H0V173H14V158Z" fill="#A7E9F1"/>
<path d="M303 72H289V87H303V72Z" fill="#31324C"/>
<path d="M274 274H260V289H274V274Z" fill="#31324C"/>
<path d="M173 231H158V245H173V231Z" fill="#31324C"/>
<path d="M87 101H72V116H87V101Z" fill="#A7E9F1"/>
<path d="M58 432H43V447H58V432Z" fill="#A7E9F1"/>
<path d="M101 116H87V129H101V116Z" fill="#A7E9F1"/>
<path d="M187 274H173V289H187V274Z" fill="#31324C"/>
<path d="M173 129H158V144H173V129Z" fill="#31324C"/>
<path d="M187 216H173V231H187V216Z" fill="#31324C"/>
<path d="M187 389H173V403H187V389Z" fill="#31324C"/>
<path d="M29 144H14V158H29V144Z" fill="#A7E9F1"/>
<path d="M129 173H116V187H129V173Z" fill="#31324C"/>
<path d="M87 289H72V303H87V289Z" fill="#A7E9F1"/>
<path d="M317 87H303V101H317V87Z" fill="#31324C"/>
<path d="M303 129H289V144H303V129Z" fill="#31324C"/>
<path d="M202 346H187V361H202V346Z" fill="#31324C"/>
<path d="M231 260H216V274H231V260Z" fill="#31324C"/>
<path d="M87 187H72V202H87V187Z" fill="#A7E9F1"/>
<path d="M72 144H58V158H72V144Z" fill="#A7E9F1"/>
<path d="M187 58H173V72H187V58Z" fill="#A7E9F1"/>
<path d="M87 418H72V432H87V418Z" fill="#A7E9F1"/>
<path d="M87 432H72V447H87V432Z" fill="#A7E9F1"/>
<path d="M260 202H245V216H260V202Z" fill="#31324C"/>
<path d="M87 274H72V289H87V274Z" fill="#A7E9F1"/>
<path d="M289 260H274V274H289V260Z" fill="#31324C"/>
<path d="M303 375H289V389H303V375Z" fill="#31324C"/>
<path d="M202 361H187V375H202V361Z" fill="#31324C"/>
<path d="M260 361H245V375H260V361Z" fill="#31324C"/>
<path d="M245 231H231V245H245V231Z" fill="#31324C"/>
<path d="M116 116H101V129H116V116Z" fill="#A7E9F1"/>
<path d="M58 389H43V403H58V389Z" fill="#A7E9F1"/>
<path d="M173 303H158V317H173V303Z" fill="#31324C"/>
<path d="M231 43H216V58H231V43Z" fill="#A7E9F1"/>
<path d="M317 0H303V14H317V0Z" fill="#A7E9F1"/>
<path d="M216 173H202V187H216V173Z" fill="#31324C"/>
<path d="M289 187H274V202H289V187Z" fill="#31324C"/>
<path d="M158 216H144V231H158V216Z" fill="#31324C"/>
<path d="M289 231H274V245H289V231Z" fill="#31324C"/>
<path d="M187 129H173V144H187V129Z" fill="#31324C"/>
<path d="M72 173H58V187H72V173Z" fill="#A7E9F1"/>
<path d="M274 43H260V58H274V43Z" fill="#A7E9F1"/>
<path d="M289 158H274V173H289V158Z" fill="#31324C"/>
<path d="M260 274H245V289H260V274Z" fill="#31324C"/>
<path d="M158 317H144V332H158V317Z" fill="#31324C"/>
<path d="M158 245H144V260H158V245Z" fill="#31324C"/>
<path d="M317 129H303V144H317V129Z" fill="#31324C"/>
<path d="M303 303H289V317H303V303Z" fill="#31324C"/>
<path d="M274 375H260V389H274V375Z" fill="#31324C"/>
<path d="M72 231H58V245H72V231Z" fill="#A7E9F1"/>
<path d="M173 202H158V216H173V202Z" fill="#31324C"/>
<path d="M87 361H72V375H87V361Z" fill="#A7E9F1"/>
<path d="M158 375H144V389H158V375Z" fill="#31324C"/>
<path d="M58 260H43V274H58V260Z" fill="#A7E9F1"/>
<path d="M173 332H158V346H173V332Z" fill="#31324C"/>
<path d="M245 361H231V375H245V361Z" fill="#31324C"/>
<path d="M187 289H173V303H187V289Z" fill="#31324C"/>
<path d="M144 144H129V158H144V144Z" fill="#31324C"/>
<path d="M245 43H231V58H245V43Z" fill="#A7E9F1"/>
<path d="M231 173H216V187H231V173Z" fill="#31324C"/>
<path d="M303 317H289V332H303V317Z" fill="#31324C"/>
<path d="M289 289H274V303H289V289Z" fill="#31324C"/>
<path d="M274 245H260V260H274V245Z" fill="#31324C"/>
<path d="M231 303H216V317H231V303Z" fill="#31324C"/>
<path d="M260 375H245V389H260V375Z" fill="#31324C"/>
<path d="M58 129H43V144H58V129Z" fill="#A7E9F1"/>
<path d="M216 346H202V361H216V346Z" fill="#31324C"/>
<path d="M187 202H173V216H187V202Z" fill="#31324C"/>
<path d="M303 260H289V274H303V260Z" fill="#31324C"/>
<path d="M58 274H43V289H58V274Z" fill="#A7E9F1"/>
<path d="M58 101H43V116H58V101Z" fill="#A7E9F1"/>
<path d="M303 0H289V14H303V0Z" fill="#A7E9F1"/>
<path d="M58 289H43V303H58V289Z" fill="#A7E9F1"/>
<path d="M87 303H72V317H87V303Z" fill="#A7E9F1"/>
<path d="M317 346H303V361H317V346Z" fill="#31324C"/>
<path d="M317 216H303V231H317V216Z" fill="#31324C"/>
<path d="M274 389H260V403H274V389Z" fill="#31324C"/>
<path d="M231 332H216V346H231V332Z" fill="#31324C"/>
<path d="M173 389H158V403H173V389Z" fill="#31324C"/>
<path d="M187 231H173V245H187V231Z" fill="#31324C"/>
<path d="M58 303H43V317H58V303Z" fill="#A7E9F1"/>
<path d="M144 375H129V389H144V375Z" fill="#31324C"/>
<path d="M303 361H289V375H303V361Z" fill="#31324C"/>
<path d="M202 375H187V389H202V375Z" fill="#31324C"/>
<path d="M317 231H303V245H317V231Z" fill="#31324C"/>
<path d="M158 289H144V303H158V289Z" fill="#31324C"/>
<path d="M72 418H58V432H72V418Z" fill="#A7E9F1"/>
<path d="M274 289H260V303H274V289Z" fill="#31324C"/>
<path d="M72 432H58V447H72V432Z" fill="#A7E9F1"/>
<path d="M144 389H129V403H144V389Z" fill="#31324C"/>
<path d="M245 289H231V303H245V289Z" fill="#31324C"/>
<path d="M274 87H260V101H274V87Z" fill="#31324C"/>
<path d="M187 303H173V317H187V303Z" fill="#31324C"/>
<path d="M144 361H129V375H144V361Z" fill="#31324C"/>
<path d="M274 260H260V274H274V260Z" fill="#31324C"/>
<path d="M144 332H129V346H144V332Z" fill="#31324C"/>
<path d="M58 375H43V389H58V375Z" fill="#A7E9F1"/>
<path d="M317 289H303V303H317V289Z" fill="#31324C"/>
<path d="M260 101H245V116H260V101Z" fill="#31324C"/>
<path d="M87 389H72V403H87V389Z" fill="#A7E9F1"/>
<path d="M202 389H187V403H202V389Z" fill="#31324C"/>
<path d="M274 317H260V332H274V317Z" fill="#31324C"/>
<path d="M58 418H43V432H58V418Z" fill="#A7E9F1"/>
<path d="M216 231H202V245H216V231Z" fill="#31324C"/>
<path d="M289 245H274V260H289V245Z" fill="#31324C"/>
<path d="M289 101H274V116H289V101Z" fill="#31324C"/>
<path d="M274 101H260V116H274V101Z" fill="#31324C"/>
<path d="M231 101H216V116H231V101Z" fill="#31324C"/>
<path d="M187 173H173V187H187V173Z" fill="#31324C"/>
<path d="M231 144H216V158H231V144Z" fill="#31324C"/>
<path d="M303 216H289V231H303V216Z" fill="#31324C"/>
<path d="M72 101H58V116H72V101Z" fill="#A7E9F1"/>
<path d="M303 332H289V346H303V332Z" fill="#31324C"/>
<path d="M317 260H303V274H317V260Z" fill="#31324C"/>
<path d="M231 346H216V361H231V346Z" fill="#31324C"/>
<path d="M202 116H187V129H202V116Z" fill="#31324C"/>
<path d="M72 129H58V144H72V129Z" fill="#A7E9F1"/>
<path d="M303 87H289V101H303V87Z" fill="#31324C"/>
<path d="M29 158H14V173H29V158Z" fill="#A7E9F1"/>
<path d="M72 289H58V303H72V289Z" fill="#A7E9F1"/>
<path d="M303 158H289V173H303V158Z" fill="#31324C"/>
<path d="M144 202H129V216H144V202Z" fill="#31324C"/>
<path d="M129 187H116V202H129V187Z" fill="#31324C"/>
<path d="M43 129H29V144H43V129Z" fill="#A7E9F1"/>
<path d="M72 317H58V332H72V317Z" fill="#A7E9F1"/>
<path d="M58 332H43V346H58V332Z" fill="#A7E9F1"/>
<path d="M289 129H274V144H289V129Z" fill="#31324C"/>
<path d="M129 245H116V260H129V245Z" fill="#31324C"/>
<path d="M274 129H260V144H274V129Z" fill="#31324C"/>
<path d="M289 216H274V231H289V216Z" fill="#31324C"/>
<path d="M87 317H72V332H87V317Z" fill="#A7E9F1"/>
<path d="M129 289H116V303H129V289Z" fill="#31324C"/>
<path d="M245 202H231V216H245V202Z" fill="#31324C"/>
<path d="M260 289H245V303H260V289Z" fill="#31324C"/>
<path d="M274 216H260V231H274V216Z" fill="#31324C"/>
<path d="M202 144H187V158H202V144Z" fill="#31324C"/>
<path d="M216 260H202V274H216V260Z" fill="#31324C"/>
<path d="M245 116H231V129H245V116Z" fill="#31324C"/>
<path d="M260 43H245V58H260V43Z" fill="#A7E9F1"/>
<path d="M245 346H231V361H245V346Z" fill="#31324C"/>
<path d="M87 260H72V274H87V260Z" fill="#A7E9F1"/>
<path d="M245 158H231V173H245V158Z" fill="#31324C"/>
<path d="M202 216H187V231H202V216Z" fill="#31324C"/>
<path d="M58 231H43V245H58V231Z" fill="#A7E9F1"/>
<path d="M187 72H173V87H187V72Z" fill="#A7E9F1"/>
<path d="M129 101H116V116H129V101Z" fill="#A7E9F1"/>
<path d="M289 274H274V289H289V274Z" fill="#31324C"/>
<path d="M187 346H173V361H187V346Z" fill="#31324C"/>
<path d="M216 144H202V158H216V144Z" fill="#31324C"/>
<path d="M72 245H58V260H72V245Z" fill="#A7E9F1"/>
<path d="M116 101H101V116H116V101Z" fill="#A7E9F1"/>
<path d="M289 144H274V158H289V144Z" fill="#31324C"/>
<path d="M231 289H216V303H231V289Z" fill="#31324C"/>
<path d="M129 274H116V289H129V274Z" fill="#31324C"/>
<path d="M274 332H260V346H274V332Z" fill="#31324C"/>
<path d="M303 187H289V202H303V187Z" fill="#31324C"/>
<path d="M158 87H144V101H158V87Z" fill="#A7E9F1"/>
<path d="M144 303H129V317H144V303Z" fill="#31324C"/>
<path d="M187 332H173V346H187V332Z" fill="#31324C"/>
<path d="M187 144H173V158H187V144Z" fill="#31324C"/>
<path d="M158 187H144V202H158V187Z" fill="#31324C"/>
<path d="M317 187H303V202H317V187Z" fill="#31324C"/>
<path d="M144 158H129V173H144V158Z" fill="#31324C"/>
<path d="M289 332H274V346H289V332Z" fill="#31324C"/>
<path d="M216 202H202V216H216V202Z" fill="#31324C"/>
<path d="M260 260H245V274H260V260Z" fill="#31324C"/>
<path d="M129 303H116V317H129V303Z" fill="#31324C"/>
<path d="M260 245H245V260H260V245Z" fill="#31324C"/>
<path d="M129 260H116V274H129V260Z" fill="#31324C"/>
<path d="M216 332H202V346H216V332Z" fill="#31324C"/>
<path d="M303 144H289V158H303V144Z" fill="#31324C"/>
<path d="M216 389H202V403H216V389Z" fill="#31324C"/>
<path d="M43 158H29V173H43V158Z" fill="#A7E9F1"/>
<path d="M173 158H158V173H173V158Z" fill="#31324C"/>
<path d="M317 144H303V158H317V144Z" fill="#31324C"/>
<path d="M87 129H72V144H87V129Z" fill="#A7E9F1"/>
<path d="M274 14H260V29H274V14Z" fill="#A7E9F1"/>
<path d="M216 72H202V87H216V72Z" fill="#A7E9F1"/>
<path d="M129 202H116V216H129V202Z" fill="#31324C"/>
<path d="M289 317H274V332H289V317Z" fill="#31324C"/>
<path d="M144 245H129V260H144V245Z" fill="#31324C"/>
<path d="M245 101H231V116H245V101Z" fill="#31324C"/>
<path d="M202 245H187V260H202V245Z" fill="#31324C"/>
<path d="M317 14H303V29H317V14Z" fill="#A7E9F1"/>
<path d="M317 158H303V173H317V158Z" fill="#31324C"/>
<path d="M260 158H245V173H260V158Z" fill="#31324C"/>
<path d="M173 346H158V361H173V346Z" fill="#31324C"/>
<path d="M58 216H43V231H58V216Z" fill="#A7E9F1"/>
<path d="M158 332H144V346H158V332Z" fill="#31324C"/>
<path d="M260 389H245V403H260V389Z" fill="#31324C"/>
<path d="M173 216H158V231H173V216Z" fill="#31324C"/>
<path d="M158 101H144V116H158V101Z" fill="#A7E9F1"/>
<path d="M202 173H187V187H202V173Z" fill="#31324C"/>
<path d="M87 202H72V216H87V202Z" fill="#A7E9F1"/>
<path d="M216 317H202V332H216V317Z" fill="#31324C"/>
<path d="M158 303H144V317H158V303Z" fill="#31324C"/>
<path d="M289 72H274V87H289V72Z" fill="#31324C"/>
<path d="M231 361H216V375H231V361Z" fill="#31324C"/>
<path d="M158 361H144V375H158V361Z" fill="#31324C"/>
<path d="M303 231H289V245H303V231Z" fill="#31324C"/>
<path d="M187 361H173V375H187V361Z" fill="#31324C"/>
<path d="M303 245H289V260H303V245Z" fill="#31324C"/>
<path d="M289 116H274V129H289V116Z" fill="#31324C"/>
<path d="M173 289H158V303H173V289Z" fill="#31324C"/>
<path d="M303 202H289V216H303V202Z" fill="#31324C"/>
<path d="M245 29H231V43H245V29Z" fill="#A7E9F1"/>
<path d="M202 289H187V303H202V289Z" fill="#31324C"/>
<path d="M274 202H260V216H274V202Z" fill="#31324C"/>
<path d="M303 274H289V289H303V274Z" fill="#31324C"/>
<path d="M231 245H216V260H231V245Z" fill="#31324C"/>
<path d="M72 375H58V389H72V375Z" fill="#A7E9F1"/>
<path d="M129 346H116V361H129V346Z" fill="#31324C"/>
<path d="M144 260H129V274H144V260Z" fill="#31324C"/>
<path d="M202 303H187V317H202V303Z" fill="#31324C"/>
<path d="M245 303H231V317H245V303Z" fill="#31324C"/>
<path d="M101 101H87V116H101V101Z" fill="#A7E9F1"/>
<path d="M216 43H202V58H216V43Z" fill="#A7E9F1"/>
<path d="M289 87H274V101H289V87Z" fill="#31324C"/>
<path d="M72 361H58V375H72V361Z" fill="#A7E9F1"/>
<path d="M231 375H216V389H231V375Z" fill="#31324C"/>
<path d="M202 274H187V289H202V274Z" fill="#31324C"/>
<path d="M317 202H303V216H317V202Z" fill="#31324C"/>
<path d="M303 116H289V129H303V116Z" fill="#31324C"/>
<path d="M158 144H144V158H158V144Z" fill="#31324C"/>
<path d="M245 173H231V187H245V173Z" fill="#31324C"/>
<path d="M231 158H216V173H231V158Z" fill="#31324C"/>
<path d="M260 144H245V158H260V144Z" fill="#31324C"/>
<path d="M317 317H303V332H317V317Z" fill="#31324C"/>
<path d="M72 158H58V173H72V158Z" fill="#A7E9F1"/>
<path d="M158 202H144V216H158V202Z" fill="#31324C"/>
<path d="M274 158H260V173H274V158Z" fill="#31324C"/>
<path d="M187 317H173V332H187V317Z" fill="#31324C"/>
<path d="M317 274H303V289H317V274Z" fill="#31324C"/>
<path d="M72 260H58V274H72V260Z" fill="#A7E9F1"/>
<path d="M303 101H289V116H303V101Z" fill="#31324C"/>
<path d="M317 375H303V389H317V375Z" fill="#31324C"/>
<path d="M87 87H72V101H87V87Z" fill="#A7E9F1"/>
<path d="M129 332H116V346H129V332Z" fill="#31324C"/>
<path d="M129 375H116V389H129V375Z" fill="#31324C"/>
<path d="M245 332H231V346H245V332Z" fill="#31324C"/>
<path d="M173 144H158V158H173V144Z" fill="#31324C"/>
<path d="M58 158H43V173H58V158Z" fill="#A7E9F1"/>
<path d="M260 231H245V245H260V231Z" fill="#31324C"/>
<path d="M274 361H260V375H274V361Z" fill="#31324C"/>
<path d="M245 144H231V158H245V144Z" fill="#31324C"/>
<path d="M231 231H216V245H231V231Z" fill="#31324C"/>
<path d="M274 173H260V187H274V173Z" fill="#31324C"/>
<path d="M187 87H173V101H187V87Z" fill="#A7E9F1"/>
<path d="M289 389H274V403H289V389Z" fill="#31324C"/>
<path d="M317 58H303V72H317V58Z" fill="#31324C"/>
<path d="M58 346H43V361H58V346Z" fill="#A7E9F1"/>
<path d="M303 173H289V187H303V173Z" fill="#31324C"/>
<path d="M202 187H187V202H202V187Z" fill="#31324C"/>
<path d="M58 173H43V187H58V173Z" fill="#A7E9F1"/>
<path d="M72 202H58V216H72V202Z" fill="#A7E9F1"/>
<path d="M216 187H202V202H216V187Z" fill="#31324C"/>
<path d="M87 332H72V346H87V332Z" fill="#A7E9F1"/>
<path d="M260 317H245V332H260V317Z" fill="#31324C"/>
<path d="M144 173H129V187H144V173Z" fill="#31324C"/>
<path d="M317 389H303V403H317V389Z" fill="#31324C"/>
<path d="M289 29H274V43H289V29Z" fill="#A7E9F1"/>
<path d="M260 187H245V202H260V187Z" fill="#31324C"/>
<path d="M260 173H245V187H260V173Z" fill="#31324C"/>
<path d="M231 216H216V231H231V216Z" fill="#31324C"/>
<path d="M274 187H260V202H274V187Z" fill="#31324C"/>
<path d="M72 303H58V317H72V303Z" fill="#A7E9F1"/>
<path d="M274 116H260V129H274V116Z" fill="#31324C"/>
<path d="M187 375H173V389H187V375Z" fill="#31324C"/>
<path d="M216 303H202V317H216V303Z" fill="#31324C"/>
<path d="M187 245H173V260H187V245Z" fill="#31324C"/>
<path d="M202 129H187V144H202V129Z" fill="#31324C"/>
<path d="M72 403H58V418H72V403Z" fill="#A7E9F1"/>
<path d="M187 260H173V274H187V260Z" fill="#31324C"/>
<path d="M144 187H129V202H144V187Z" fill="#31324C"/>
<path d="M317 101H303V116H317V101Z" fill="#31324C"/>
<path d="M129 231H116V245H129V231Z" fill="#31324C"/>
<path d="M216 375H202V389H216V375Z" fill="#31324C"/>
<path d="M216 158H202V173H216V158Z" fill="#31324C"/>
<path d="M144 317H129V332H144V317Z" fill="#31324C"/>
<path d="M303 289H289V303H303V289Z" fill="#31324C"/>
<path d="M274 303H260V317H274V303Z" fill="#31324C"/>
<path d="M87 231H72V245H87V231Z" fill="#A7E9F1"/>
<path d="M202 332H187V346H202V332Z" fill="#31324C"/>
<path d="M231 116H216V129H231V116Z" fill="#31324C"/>
<path d="M317 361H303V375H317V361Z" fill="#31324C"/>
<path d="M245 216H231V231H245V216Z" fill="#31324C"/>
<path d="M216 245H202V260H216V245Z" fill="#31324C"/>
<path d="M72 274H58V289H72V274Z" fill="#A7E9F1"/>
<path d="M173 260H158V274H173V260Z" fill="#31324C"/>
<path d="M317 332H303V346H317V332Z" fill="#31324C"/>
<path d="M87 116H72V129H87V116Z" fill="#A7E9F1"/>
<path d="M129 317H116V332H129V317Z" fill="#31324C"/>
<path d="M231 274H216V289H231V274Z" fill="#31324C"/>
<path d="M231 202H216V216H231V202Z" fill="#31324C"/>
<path d="M158 158H144V173H158V158Z" fill="#31324C"/>
<path d="M72 216H58V231H72V216Z" fill="#A7E9F1"/>
<path d="M245 375H231V389H245V375Z" fill="#31324C"/>
<path d="M260 303H245V317H260V303Z" fill="#31324C"/>
<path d="M303 14H289V29H303V14Z" fill="#A7E9F1"/>
<path d="M58 403H43V418H58V403Z" fill="#A7E9F1"/>
<path d="M260 216H245V231H260V216Z" fill="#31324C"/>
<path d="M173 361H158V375H173V361Z" fill="#31324C"/>
<path d="M216 116H202V129H216V116Z" fill="#31324C"/>
<path d="M158 389H144V403H158V389Z" fill="#31324C"/>
<path d="M173 317H158V332H173V317Z" fill="#31324C"/>
<path d="M158 72H144V87H158V72Z" fill="#A7E9F1"/>
<path d="M216 129H202V144H216V129Z" fill="#31324C"/>
<path d="M274 144H260V158H274V144Z" fill="#31324C"/>
<path d="M58 245H43V260H58V245Z" fill="#A7E9F1"/>
<path d="M231 58H216V72H231V58Z" fill="#A7E9F1"/>
<path d="M72 332H58V346H72V332Z" fill="#A7E9F1"/>
<path d="M289 361H274V375H289V361Z" fill="#31324C"/>
<path d="M317 72H303V87H317V72Z" fill="#31324C"/>
</svg>
